<svg xmlns="http://www.w3.org/2000/svg" version="1.1" xmlns:xlink="http://www.w3.org/1999/xlink" xmlns:svgjs="http://svgjs.com/svgjs" width="256" height="256"><svg width="256" height="256" viewBox="0 0 67.733331 67.733331" version="1.1" id="SvgjsSvg1006" inkscape:version="1.1.2 (0a00cf5339, 2022-02-04)" sodipodi:docname="icon.svg" xmlns:inkscape="http://www.inkscape.org/namespaces/inkscape" xmlns:sodipodi="http://sodipodi.sourceforge.net/DTD/sodipodi-0.dtd" xmlns="http://www.w3.org/2000/svg" xmlns:svg="http://www.w3.org/2000/svg">
  <sodipodi:namedview id="SvgjsSodipodi:namedview1005" pagecolor="#ffffff" bordercolor="#000000" borderopacity="0.25" inkscape:pageshadow="2" inkscape:pageopacity="0.0" inkscape:pagecheckerboard="0" inkscape:document-units="mm" showgrid="false" inkscape:snap-global="false" inkscape:zoom="0.45291836" inkscape:cx="-274.88398" inkscape:cy="235.14171" inkscape:window-width="1680" inkscape:window-height="986" inkscape:window-x="0" inkscape:window-y="27" inkscape:window-maximized="1" inkscape:current-layer="layer1" units="px"></sodipodi:namedview>
  <defs id="SvgjsDefs1004"></defs>
  <g inkscape:label="Layer 1" inkscape:groupmode="layer" id="SvgjsG1003">
    <g id="SvgjsG1002" transform="matrix(0.53784803,0,0,0.53832438,-32.108141,-23.444683)" style="stroke-width:9.29219;stroke-miterlimit:4;stroke-dasharray:none">
      <path style="fill:#a6162b;fill-opacity:1;stroke:#1e1549;stroke-width:9.29219;stroke-linecap:round;stroke-miterlimit:4;stroke-dasharray:none;stroke-opacity:0.964706" d="m 145.51897,97.070115 h 20.0941 c 0,0 0,-25.105396 0,-31.580467 0,-4.52177 -2.80608,-10.037738 -9.00476,-10.145533 -6.19868,-0.107795 -10.97696,4.319656 -10.97696,9.895583 0,5.575927 -0.11238,31.830417 -0.11238,31.830417 z" id="SvgjsPath1001" sodipodi:nodetypes="ccszsc"></path>
      <path style="fill:#ff2e4d;fill-opacity:1;stroke:#1e1549;stroke-width:9.29219;stroke-linecap:round;stroke-miterlimit:4;stroke-dasharray:none;stroke-opacity:0.964706" d="m 79.874106,153.80383 33.256594,-22.10055 32.50765,22.0941 -0.007,-88.557682 c 0,0 -0.75806,-9.843415 10.97696,-9.895583 L 89.351145,54.99777 c 0,0 -9.63541,-0.514027 -9.63541,12.641061 0,13.155089 0.158371,86.164999 0.158371,86.164999 z" id="SvgjsPath1000" sodipodi:nodetypes="ccccccsc"></path>
    </g>
  </g>
</svg><style>@media (prefers-color-scheme: light) { :root { filter: none; } }
</style></svg>